<?xml version="1.0" encoding="UTF-8"?>
<svg xmlns="http://www.w3.org/2000/svg" xmlns:xlink="http://www.w3.org/1999/xlink" width="7px" height="8px" viewBox="0 0 7 8" version="1.1">
<g id="surface1">
<path style=" stroke:none;fill-rule:nonzero;fill:rgb(9.411765%,36.078431%,100%);fill-opacity:1;" d="M 4.207031 7.589844 C 5.175781 6.746094 6.898438 5.015625 6.898438 3.433594 C 6.898438 2.554688 6.546875 1.714844 5.921875 1.09375 C 5.296875 0.472656 4.449219 0.125 3.566406 0.125 C 2.683594 0.125 1.835938 0.472656 1.214844 1.09375 C 0.589844 1.714844 0.238281 2.554688 0.238281 3.433594 C 0.238281 5.015625 1.957031 6.746094 2.925781 7.589844 C 3.101562 7.746094 3.332031 7.832031 3.566406 7.832031 C 3.804688 7.832031 4.03125 7.746094 4.207031 7.589844 Z M 2.457031 3.433594 C 2.457031 3.140625 2.574219 2.859375 2.78125 2.652344 C 2.992188 2.445312 3.273438 2.328125 3.566406 2.328125 C 3.863281 2.328125 4.144531 2.445312 4.351562 2.652344 C 4.558594 2.859375 4.675781 3.140625 4.675781 3.433594 C 4.675781 3.722656 4.558594 4.003906 4.351562 4.210938 C 4.144531 4.417969 3.863281 4.535156 3.566406 4.535156 C 3.273438 4.535156 2.992188 4.417969 2.78125 4.210938 C 2.574219 4.003906 2.457031 3.722656 2.457031 3.433594 Z M 2.457031 3.433594 "/>
</g>
</svg>
